<svg id="Calque_1" data-name="Calque 1" xmlns="http://www.w3.org/2000/svg" viewBox="0 0 12.54 12.54">
  <defs>
    <style>
      .cls-1 {
        fill: #056ab0;
      }
    </style>
  </defs>
  <title>youtube</title>
  <g>
    <polygon class="cls-1" points="3.29 6.73 3.79 6.73 3.79 9.43 4.26 9.43 4.26 6.73 4.77 6.73 4.77 6.29 3.29 6.29 3.29 6.73"/>
    <path class="cls-1" d="M2167,14.82a0.57,0.57,0,0,0-.44.25v-1h-0.42v3.13h0.42V17a0.58,0.58,0,0,0,.44.26,0.33,0.33,0,0,0,.34-0.26,1.86,1.86,0,0,0,0-.47V15.56a1.79,1.79,0,0,0,0-.47A0.33,0.33,0,0,0,2167,14.82Zm0,1.69c0,0.21-.06.31-0.18,0.31a0.3,0.3,0,0,1-.21-0.1V15.31a0.3,0.3,0,0,1,.21-0.1c0.12,0,.18.11,0.18,0.32v1Z" transform="translate(-2159.72 -7.76)"/>
    <path class="cls-1" d="M2165.34,16.64a0.37,0.37,0,0,1-.27.2,0.1,0.1,0,0,1-.1-0.1,1.31,1.31,0,0,1,0-.16V14.85h-0.42V16.7a1.19,1.19,0,0,0,0,.35,0.26,0.26,0,0,0,.27.17,0.68,0.68,0,0,0,.48-0.29v0.25h0.42V14.85h-0.42v1.78Z" transform="translate(-2159.72 -7.76)"/>
    <path class="cls-1" d="M2165.7,12.7c0.14,0,.2-0.11.2-0.33v-1c0-.22-0.07-0.33-0.2-0.33s-0.2.11-.2,0.33v1C2165.5,12.59,2165.56,12.7,2165.7,12.7Z" transform="translate(-2159.72 -7.76)"/>
    <path class="cls-1" d="M2166,7.76a6.27,6.27,0,1,0,6.27,6.27A6.27,6.27,0,0,0,2166,7.76Zm0.7,2.93h0.43v1.74a1,1,0,0,0,0,.17,0.1,0.1,0,0,0,.1.1,0.38,0.38,0,0,0,.27-0.2v-1.8h0.43v2.36h-0.43V12.8a0.69,0.69,0,0,1-.49.29,0.26,0.26,0,0,1-.28-0.18,1.19,1.19,0,0,1,0-.35V10.69h0Zm-1.61.77a0.92,0.92,0,0,1,.13-0.56,0.63,0.63,0,0,1,1,0,0.93,0.93,0,0,1,.13.56v0.83a0.92,0.92,0,0,1-.13.55,0.63,0.63,0,0,1-1,0,0.91,0.91,0,0,1-.13-0.55V11.46Zm-1.14-1.58,0.34,1.24,0.32-1.24h0.48l-0.57,1.88v1.28H2164V11.77a7.79,7.79,0,0,0-.29-1l-0.3-.88h0.5Zm5.44,7.5a0.88,0.88,0,0,1-.76.69,23.5,23.5,0,0,1-2.62.1,23.5,23.5,0,0,1-2.62-.1,0.88,0.88,0,0,1-.76-0.69,7.49,7.49,0,0,1-.12-1.65,7.49,7.49,0,0,1,.12-1.65,0.88,0.88,0,0,1,.76-0.69,35.48,35.48,0,0,1,5.24,0,0.88,0.88,0,0,1,.76.69,7.51,7.51,0,0,1,.12,1.65A7.49,7.49,0,0,1,2169.36,17.39Z" transform="translate(-2159.72 -7.76)"/>
    <path class="cls-1" d="M2168.33,14.82a0.6,0.6,0,0,0-.51.24,0.91,0.91,0,0,0-.13.55v0.82a0.9,0.9,0,0,0,.14.55,0.61,0.61,0,0,0,.51.24,0.58,0.58,0,0,0,.51-0.25,0.6,0.6,0,0,0,.1-0.25s0-.14,0-0.27V16.38h-0.43a2.77,2.77,0,0,1,0,.29,0.18,0.18,0,0,1-.19.17c-0.15,0-.22-0.11-0.22-0.32V16.1H2169V15.61a0.92,0.92,0,0,0-.13-0.55A0.59,0.59,0,0,0,2168.33,14.82Zm0.21,0.92h-0.42V15.53q0-.32.21-0.32c0.14,0,.21.11,0.21,0.32v0.22Z" transform="translate(-2159.72 -7.76)"/>
  </g>
</svg>
